<svg width="243" height="242" xmlns="http://www.w3.org/2000/svg" xmlns:xlink="http://www.w3.org/1999/xlink" xml:space="preserve" overflow="hidden"><g transform="translate(-68 -55)"><g><path d="M187.266 296.621C184.411 296.316 181.657 296.112 178.801 295.807 162.585 294.279 147.286 289.493 133.007 281.754 124.848 277.172 117.301 271.775 110.366 265.462 99.6567 255.89 90.9876 244.892 84.2562 232.266 78.0348 220.657 73.9552 208.336 71.8134 195.302 70.2836 185.73 70.0796 175.954 70.7935 166.281 71.6095 155.283 74.0572 144.489 78.0348 134.103 83.4403 120.254 90.9876 107.627 100.983 96.5279 114.241 81.8645 130.152 70.867 148.714 63.9427 158.199 60.3787 168.092 58.1384 178.087 57.1202 189.918 56 201.545 56.4073 213.172 58.6476 232.55 62.3134 249.888 70.3579 265.391 82.6792 280.587 94.7968 292.112 109.766 300.169 127.382 305.473 139.092 308.838 151.312 310.062 164.04 312 184.61 309.246 204.466 300.985 223.508 296.396 234.302 290.276 244.281 282.627 253.242 269.368 268.924 253.254 280.634 234.182 288.17 222.249 292.854 209.806 295.603 196.955 296.112 196.037 296.214 195.119 296.418 194.202 296.621 191.856 296.621 189.612 296.621 187.266 296.621ZM297.11 132.779C283.137 96.4261 243.463 61.1933 190.224 61.2951 137.291 61.2951 91.0896 97.5462 78.3408 149.581 66 200.19 89.7637 257.519 144.328 281.958 187.164 301 246.115 293.261 282.729 245.503 294.866 229.72 302.107 211.696 304.759 191.84 307.411 172.085 305.167 152.941 298.027 134.714 296.6 136.241 295.172 137.667 293.744 139.092 295.478 139.5 296.498 140.212 296.396 142.86 296.294 144.998 295.682 145.711 294.05 146.322 291.602 147.239 289.052 148.053 286.605 148.868 285.789 152.228 283.545 154.468 279.975 151.923 278.037 150.599 275.488 150.192 273.142 149.479 272.734 149.377 272.224 149.784 271.714 149.886 271.612 150.09 271.408 150.395 271.306 150.599 271.918 150.904 272.53 151.21 273.04 151.617 274.162 152.33 274.468 153.247 273.55 154.367 272.632 155.283 271.714 156.301 270.286 155.181 268.96 154.163 267.94 154.57 266.921 155.69 266.513 156.2 266.003 156.709 265.595 157.218 262.025 161.495 260.597 161.902 256.925 157.422 255.6 155.792 254.58 154.061 253.356 152.432 253.56 152.33 253.764 152.126 253.866 151.923 255.396 152.534 256.721 153.247 258.251 153.756 260.393 154.57 261.005 152.33 262.331 151.21 260.903 150.497 259.373 149.784 257.843 149.479 253.662 148.766 252.846 146.933 252.234 142.758 252.132 141.944 252.948 140.925 253.356 140.111 255.294 141.536 256.721 142.86 258.353 143.675 261.209 144.998 264.167 145.915 267.022 147.035 267.532 147.137 268.246 147.239 268.654 147.035 270.286 146.119 271.612 146.729 273.04 147.34 274.468 147.951 275.998 148.257 277.527 148.664 277.629 148.359 277.629 148.053 277.731 147.748 275.794 147.137 273.754 145.915 271.816 145.915 266.921 146.017 263.759 143.369 260.903 140.009 260.801 139.805 260.801 139.5 260.801 138.991 266.309 140.314 271.612 141.638 277.12 143.064 277.425 142.453 277.935 141.944 278.241 141.536 276.508 140.823 274.978 140.111 273.244 139.296 272.02 138.991 270.694 138.583 269.368 138.278 269.776 136.852 269.98 135.426 270.592 134.103 271.306 132.372 272.224 130.641 273.142 128.909 273.448 128.197 273.448 127.382 273.958 126.873 274.468 126.364 275.386 126.058 275.998 126.16 276.406 126.16 276.916 127.178 277.018 127.789 277.425 131.353 277.323 134.816 274.978 137.972 276.508 138.176 277.629 138.38 277.833 136.547 278.037 135.019 279.057 134.917 280.281 135.528 280.587 135.732 280.995 136.037 281.403 136.343 281.811 134.816 282.015 133.39 282.423 131.964 282.729 131.048 283.341 130.335 284.565 131.15 285.381 131.761 286.197 132.168 287.013 132.677 288.848 133.797 290.582 133.899 292.622 133.288 294.05 132.881 295.478 132.983 297.11 132.779ZM284.259 140.925C285.075 141.536 285.585 141.842 286.095 142.351 285.687 142.962 285.381 143.471 285.075 143.878 285.177 144.082 285.279 144.286 285.381 144.489 286.401 143.98 287.93 143.675 288.236 142.962 288.542 142.147 287.624 140.925 287.217 139.703 286.095 140.212 285.279 140.518 284.259 140.925Z" fill="#00458E" fill-rule="evenodd" fill-opacity="1"/><path d="M246 147.072C244.172 152.601 240.009 155.366 233.511 155.468 231.581 155.468 229.55 155.059 227.621 155.059 227.012 155.059 226.098 155.468 225.895 155.98 225.184 157.312 224.778 158.745 224.169 160.383 229.043 160.383 233.815 160.383 238.588 160.383 237.978 164.991 233.511 168.78 228.433 168.985 225.793 169.087 223.153 168.985 220.209 168.985 219.599 170.418 218.889 172.159 217.975 174.412 222.138 174.412 225.895 174.412 229.754 174.412 228.332 178.712 224.473 181.784 220.513 182.091 219.701 182.194 218.99 182.194 218.279 182.194 213.913 182.399 213.507 182.706 212.695 187.416 215.639 187.416 218.584 187.416 221.529 187.416 220.513 192.536 217.569 195.096 212.695 195.301 208.227 195.403 208.024 195.608 207.11 200.625 208.227 200.625 209.141 200.625 210.156 200.625 211.171 200.625 212.187 200.625 213.202 200.625 212.695 204.209 209.851 207.076 206.602 207.486 205.891 207.588 205.282 207.793 204.571 207.793 200.307 207.486 199.19 213.015 201.627 215.78 202.134 216.394 202.744 217.009 203.251 217.623 199.19 224.279 195.128 231.037 190.863 238 186.294 230.935 181.826 224.176 177.663 217.623 178.475 216.087 179.592 214.654 179.998 213.22 180.912 209.943 179.592 207.895 176.241 207.588 171.977 207.076 169.235 204.823 167.61 200.625 169.743 200.625 171.672 200.625 173.906 200.625 173.297 198.884 172.789 197.349 172.18 196.017 171.977 195.608 171.063 195.198 170.555 195.301 165.072 195.813 162.025 192.741 159.792 188.03 162.736 187.826 165.579 187.621 168.727 187.518 168.118 185.983 167.712 184.651 167.103 183.525 166.899 183.115 165.986 183.013 165.376 182.911 163.549 182.706 161.721 182.706 159.893 182.501 155.73 181.989 153.598 179.02 151.668 175.026 155.628 175.026 159.284 175.026 163.549 175.026 162.533 172.773 161.822 171.135 161.01 169.497 160.807 169.19 159.893 169.087 159.385 169.087 157.355 168.985 155.324 169.087 153.293 168.985 147.911 168.882 144.459 166.322 142.326 160.895 147.099 160.895 151.77 160.895 156.847 160.895 156.136 159.155 155.831 157.619 155.019 156.288 154.714 155.776 153.598 155.571 152.785 155.468 149.536 155.264 146.185 155.161 142.936 154.854 138.671 154.444 136.132 151.577 134 147.891 137.859 147.789 141.514 147.584 145.068 147.482 151.262 147.277 157.355 147.072 163.549 146.97 169.743 146.867 174.109 149.734 176.546 155.468 177.46 157.414 178.374 159.359 179.694 161.203 180.709 157.619 181.826 154.137 182.74 150.553 184.06 146.048 185.583 144.717 190.152 144.41 195.534 144 200.51 145.229 205.181 148.71 202.134 149.939 199.19 150.963 196.143 152.089 197.565 155.571 198.986 158.95 200.51 162.636 201.83 160.076 202.947 157.824 204.165 155.571 206.399 151.68 209.141 148.403 213.608 147.277 214.218 147.174 214.827 146.97 215.436 146.97 225.286 146.97 235.034 146.97 244.883 146.97 245.188 146.97 245.492 147.072 246 147.072Z" fill="#00458E" fill-rule="evenodd" fill-opacity="1"/><path d="M232.511 228C232.002 227.387 231.595 226.877 231.085 226.264 248.094 210.945 256.343 191.95 253.695 168.972 251.862 152.122 244.122 138.029 230.984 127.306 203.994 105.043 166.312 108.923 144.007 132.616 131.48 146.096 125.471 162.13 126.592 180.614 127.712 198.997 135.758 214.111 149.711 226.162 149.202 226.774 148.692 227.387 148.183 227.898 119.259 203.899 116 161.721 139.73 133.739 166.006 103 209.902 103.511 235.872 128.327 265 156.207 263.37 202.06 232.511 228Z" fill="#00458E" fill-rule="evenodd" fill-opacity="1"/><path d="M108.025 133.128C108.025 131.18 108.127 129.333 108.025 127.487 107.924 126.872 107.519 126.256 107.114 125.744 106.304 124.718 105.291 123.795 104.481 122.667 102.861 120.821 103.063 119.795 104.987 118.359 105.392 118.051 105.797 117.744 106.202 117.539 107.924 117.026 108.329 115.795 108.329 114.051 108.329 113.436 108.937 112.718 109.342 112 110.051 112.513 111.063 113.026 111.367 113.744 111.772 114.667 111.468 115.898 111.468 116.923 111.367 118.667 110.658 120.615 113.089 122.256 112.886 121.128 112.886 120.41 112.582 119.795 111.772 118.564 112.177 117.436 113.089 116.513 114.405 115.385 115.62 113.744 117.544 114.359 118.253 114.564 118.557 115.898 118.962 116.718 119.468 117.539 119.671 118.667 120.38 119.18 122.304 120.615 124.43 121.846 126.456 123.18 128.987 124.718 129.494 127.385 129.899 130.051 130 130.462 129.595 131.282 129.19 131.487 128.785 131.692 128.076 131.385 127.671 131.077 124.329 129.026 120.987 126.769 117.544 124.513 118.658 126.667 119.772 128.615 120.683 130.667 121.595 132.718 120.481 134.462 118.354 134.667 117.848 134.667 117.139 134.359 117.038 134.051 115.924 130.974 113.089 130.256 110.354 128.923 110.658 130.462 111.165 132 111.367 133.641 111.873 137.128 113.494 139.795 116.025 142.257 117.24 143.59 117.646 145.641 118.152 147.385 118.354 147.898 117.747 148.615 117.443 149.231 116.937 148.923 116.43 148.615 116.127 148.103 115.114 146.974 114.202 145.744 113.19 144.513 113.089 144.615 112.886 144.615 112.684 144.718 112.582 146.154 112.785 147.898 112.177 149.128 111.57 150.359 110.152 151.18 108.937 152.308 111.57 155.692 114.506 159.59 117.443 163.487 117.949 164.103 118.658 165.333 118.354 165.846 118.051 166.564 116.937 167.077 116.025 167.282 112.886 168 111.165 166.359 109.848 162.359 108.43 158.359 106.81 154.564 105.291 150.564 104.987 149.949 104.886 149.231 104.481 147.898 105.797 148.615 106.506 149.026 107.215 149.436 109.038 147.282 107.924 140.205 105.494 138.769 104.987 139.795 104.582 140.718 103.975 141.641 103.772 141.949 103.063 142.051 102.658 142.257 102.456 141.846 102.152 141.333 102.152 140.923 102.658 137.641 101.949 134.974 98.9114 133.231 98.405 132.923 98 131.898 98.1012 131.385 98.2025 130.872 98.9114 130.256 99.519 130.051 100.329 129.744 101.24 129.744 102.152 129.641 102.962 129.539 103.671 129.539 105.089 129.436 106.101 130.051 105.696 132.923 108.025 133.128Z" fill="#00458E" fill-rule="evenodd" fill-opacity="1"/><path d="M216.687 107.426C220.783 105.676 225.187 106.397 228.259 102.897 225.699 102.897 223.344 102.794 220.988 103 217.199 103.309 214.946 101.353 213.307 98.3677 213 97.7501 213 96.6177 213.307 96.103 213.512 95.6913 214.741 95.2795 215.253 95.5883 219.554 97.6471 224.163 96.8236 228.669 97.2354 232.048 97.5442 233.789 96.3089 234.916 93.2207 235.838 90.1325 237.169 87.1472 238.5 84.2649 238.91 83.3384 239.831 82.206 240.548 82.1031 241.368 82.0002 242.392 83.0296 243.006 83.8531 243.723 84.7796 244.03 85.9119 244.542 86.9413 245.259 88.4854 245.054 89.5148 243.518 90.5442 241.163 92.0883 240.241 94.6619 239.115 97.5442 241.163 97.4413 242.801 97.2354 244.44 97.1324 245.362 97.1324 246.795 96.8236 246.898 98.3677 247 99.8089 245.976 100.632 244.645 100.735 242.699 100.941 240.753 100.838 238.91 100.941 238.091 101.044 236.964 101.353 236.452 101.971 230.41 108.662 226.006 110 216.687 107.426Z" fill="#00458E" fill-rule="evenodd" fill-opacity="1"/><path d="M142.143 274.992C141.095 274.57 140.152 274.149 139 273.516 142.667 266.238 146.228 259.066 149.79 252 152.305 252.422 152.828 253.687 152.514 256.008 151.99 260.016 151.781 263.918 151.886 268.137 153.981 264.129 156.181 260.227 158.381 256.008 159.219 256.324 160.057 256.641 161 257.062 157.438 264.445 153.876 271.723 150.419 279 147.067 277.945 147.067 277.945 147.381 274.781 147.8 270.563 148.324 266.344 148.428 261.914 146.333 266.238 144.238 270.563 142.143 274.992Z" fill="#00458E" fill-rule="evenodd" fill-opacity="1"/><path d="M213 282.1C211.978 282.3 211.263 282.4 210.445 282.6 207.891 277.9 205.438 273.2 202.883 268.5 202.781 268.5 202.679 268.6 202.577 268.6 202.985 273.6 203.292 278.5 203.701 283.7 202.679 283.8 201.861 283.8 200.737 284 200.124 276.4 199.511 269.1 199 261.7 202.372 261 202.372 261 204.007 263.7 205.438 266 206.869 268.3 208.708 270.5 208.402 267.2 208.095 263.9 207.788 260.5 208.606 260.3 209.321 260.2 210.241 260 211.161 267.3 212.08 274.6 213 282.1Z" fill="#00458E" fill-rule="evenodd" fill-opacity="1"/><path d="M254.509 252.656C253.702 253.382 253.197 254.004 252.491 254.73 254.307 257.324 256.123 259.813 257.939 262.407 257.132 263.34 256.425 264.066 255.618 265 251.079 258.361 246.64 251.929 242 245.29 243.715 244.046 245.329 242.801 246.943 241.66 249.364 240.104 251.785 240 254.307 241.556 257.132 243.423 257.434 246.224 256.93 249.025 256.627 250.477 257.132 251.1 258.039 251.929 260.461 253.693 262.68 255.664 265 257.531 262.982 259.813 262.982 259.813 260.763 258.05 258.746 256.286 256.627 254.523 254.509 252.656ZM250.575 251.722C252.289 250.685 253.904 249.751 253.803 247.469 253.702 245.705 252.491 244.668 251.079 244.046 249.061 243.112 247.649 244.149 246.136 245.705 247.548 247.676 248.961 249.647 250.575 251.722Z" fill="#00458E" fill-rule="evenodd" fill-opacity="1"/><path d="M100.8 219.406C97.5 221.066 94.4 222.726 91.2001 224.387 90.8001 223.557 90.4001 222.83 90.0001 222 96.8 218.264 103.5 214.736 110.4 211 110.8 211.934 111.2 212.66 111.7 213.491 108.8 215.047 106 216.604 103.1 218.16 104.1 220.132 105.1 222 106.1 224.076 109 222.623 111.7 221.274 114.7 219.717 115.1 220.443 115.5 221.274 116 222.104 109.1 225.736 102.4 229.368 95.5 233 95.1 232.274 94.7 231.547 94.2 230.613 97.4 228.849 100.5 227.189 103.8 225.425 102.7 223.349 101.8 221.481 100.8 219.406Z" fill="#00458E" fill-rule="evenodd" fill-opacity="1"/><path d="M125 265.055C130.539 259.336 135.974 253.719 141.41 248 142.744 248.817 143.769 249.43 145 250.247 142.026 257.396 139.051 264.647 135.974 272 134.949 271.489 134.128 270.979 133.103 270.366 133.718 268.936 134.231 267.506 135.051 266.179 135.974 264.647 135.872 263.625 134.231 262.808 133.615 262.502 133.103 261.991 132.18 261.379 130.641 263.217 129.103 265.157 127.564 267.098 126.231 266.076 125.513 265.464 125 265.055ZM137.41 260.97C138.539 258.213 139.667 255.762 140.795 253.106 138.641 255.251 136.795 257.089 134.744 259.03 135.564 259.642 136.385 260.153 137.41 260.97Z" fill="#00458E" fill-rule="evenodd" fill-opacity="1"/><path d="M166.333 274.289C165.2 273.767 164.067 273.349 162.83 272.932 163.036 272.201 163.242 271.47 163.551 270.53 165.509 271.157 167.467 271.783 169.527 272.514 168.394 276.273 167.261 279.928 166.024 284 164.994 283.165 164.376 282.434 163.551 281.703 158.709 282.434 155 278.884 156.133 273.349 156.855 269.695 158.194 266.145 159.842 262.908 160.77 261.237 162.83 259.88 164.582 259.253 168.085 258 170.867 259.984 171.691 263.743 171.897 264.892 171.897 266.145 172 267.711 170.764 267.607 169.836 267.502 168.806 267.398 168.806 266.562 168.806 265.936 168.806 265.205 168.806 263.743 168.394 262.386 166.848 261.968 165.097 261.55 163.242 261.968 162.624 263.639 161.182 267.189 159.945 270.843 158.915 274.602 158.4 276.9 159.739 278.988 161.594 279.406 163.242 279.928 164.891 278.675 165.715 276.273 166.024 275.751 166.127 275.125 166.333 274.289Z" fill="#00458E" fill-rule="evenodd" fill-opacity="1"/><path d="M184.107 262C185.496 262 186.351 262 187.206 262 187.206 265.358 187.206 268.717 187.206 271.973 187.206 274.212 186.992 276.451 186.992 278.69 186.992 281.234 188.702 282.456 191.267 282.252 193.191 282.049 194.26 280.929 194.366 278.588 194.58 273.602 194.687 268.615 194.901 263.526 194.901 263.221 195.008 262.916 195.008 262.407 195.969 262.407 196.931 262.407 198 262.407 197.786 268.31 197.573 274.111 197.145 279.911 196.931 282.965 194.153 285 190.84 285 186.992 284.898 184.214 282.863 184.107 279.504 184 273.703 184.107 267.903 184.107 262Z" fill="#00458E" fill-rule="evenodd" fill-opacity="1"/><path d="M117.862 224C120.241 227.186 122.517 230.272 125 233.557 124.276 234.054 123.655 234.453 122.828 234.95 121.276 232.86 119.724 230.869 118.276 228.878 117.655 227.882 117.035 227.783 116.104 228.38 114.552 229.376 113 230.272 111.241 231.267 112.897 233.557 114.448 235.647 116.104 237.937 115.483 238.435 114.966 238.833 114.138 239.43 112.379 237.14 110.621 234.851 108.966 232.661 106.586 234.054 104.414 235.349 101.931 236.842 103.793 239.33 105.655 241.919 107.621 244.606 107 245.005 106.379 245.502 105.552 246 103.069 242.715 100.586 239.43 98 235.946 104.621 231.964 111.241 227.982 117.862 224Z" fill="#00458E" fill-rule="evenodd" fill-opacity="1"/><path d="M229.396 253C229.981 256.963 230.565 260.825 231.149 264.687 231.636 267.837 232.026 270.988 232.513 274.138 232.903 276.984 233 276.984 230.078 278 226.084 271.394 222.091 264.687 218 257.878 218.877 257.472 219.656 257.065 220.63 256.659 223.26 260.927 225.89 265.195 228.52 269.463 228.617 269.362 228.812 269.362 228.909 269.26 228.52 266.211 228.033 263.163 227.643 260.114 227.448 258.691 227.156 257.268 226.961 255.846 226.766 253.711 226.864 253.711 229.396 253Z" fill="#00458E" fill-rule="evenodd" fill-opacity="1"/><path d="M167 90.0113C166.698 90.618 166.598 90.9214 166.497 91.2247 165.793 93.4494 165.089 95.7753 164.485 98 163.68 100.528 162.976 103.056 162.172 105.483 161.367 107.91 160.361 110.236 159.456 112.562 158.45 115.393 157.243 116 154.728 114.483 150.905 112.056 150 112.258 153.42 108.011 155.734 105.079 158.148 102.146 160.059 98.9101 161.769 96.1798 162.775 93.0449 164.183 90.1124 164.485 89.6068 165.189 89.1012 165.793 89 166.095 89 166.598 89.7079 167 90.0113Z" fill="#00458E" fill-rule="evenodd" fill-opacity="1"/><path d="M265.6 249.627C266 248.843 266.3 248.157 266.6 247.471 267.5 247.569 268.5 247.765 269.4 247.667 271.3 247.667 272.7 246.294 272.8 244.529 272.8 242.765 271.6 240.902 269.8 241 268 241 266.2 241.588 264.5 241.98 263.1 242.373 261.7 243.059 260.3 243.157 257.5 243.255 255.8 241.882 254.9 239.431 254 236.784 254.8 233.843 256.8 232.275 258.4 231 261.4 231 263.7 232.275 263.4 232.961 263.1 233.647 262.7 234.431 261.9 234.333 261.1 234.235 260.3 234.235 258.1 234.235 257 235.314 257.2 237.373 257.3 239.431 258.4 240.51 260.5 240.216 262 239.922 263.5 239.235 264.9 238.549 269.2 236.588 274.2 238.549 275.3 242.765 276 245.314 275 247.765 272.9 249.333 270.8 250.902 268.1 251 265.6 249.627Z" fill="#00458E" fill-rule="evenodd" fill-opacity="1"/><path d="M251.8 263.784C252.2 264.616 252.6 265.344 253 266.176 249.5 268.048 246.1 270.024 242.5 272 238.7 265.136 234.9 258.376 231 251.512 234.3 249.64 237.6 247.872 240.9 246 241.4 246.624 241.8 247.352 242.3 248.184 239.8 249.64 237.4 250.992 234.7 252.552 235.9 254.632 237 256.608 238.2 258.792 240.6 257.544 242.8 256.296 245.2 254.944 245.6 255.672 246 256.4 246.5 257.232 244.1 258.48 241.9 259.728 239.6 261.08 240.9 263.472 242.1 265.76 243.5 268.36 246.2 266.904 248.9 265.448 251.8 263.784Z" fill="#00458E" fill-rule="evenodd" fill-opacity="1"/><path d="M103.405 198.047C104.126 197.733 104.847 197.419 105.775 197 107.218 200.874 108.557 204.539 110 208.309 108.248 209.88 106.187 209.251 104.332 208.937 98.561 208.099 92.79 207.157 86.6067 206.215 87.8434 209.67 88.977 212.707 90.1106 215.848 89.3892 216.162 88.6678 216.476 87.7403 217 86.1945 212.811 84.6487 208.728 82.9998 204.225 84.4426 204.016 85.7823 203.597 87.0189 203.806 92.9961 204.644 99.0763 205.586 105.053 206.529 105.363 206.633 105.775 206.633 106.496 206.633 105.363 203.702 104.435 200.874 103.405 198.047Z" fill="#00458E" fill-rule="evenodd" fill-opacity="1"/><path d="M271.105 207.827C271 206 271.949 205.519 273.848 205.615 276.591 205.808 279.439 205.712 282.287 205.712 282.392 205.712 282.498 205.615 283.025 205.423 280.916 203.692 279.017 202.058 277.013 200.327 275.008 198.596 275.008 198.596 276.274 196 282.603 200.519 287.561 206.769 296 208.308 295.578 209.269 295.262 209.942 294.84 211 287.35 206.865 279.122 208.789 271.105 207.827Z" fill="#00458E" fill-rule="evenodd" fill-opacity="1"/><path d="M183.146 246.148C183.86 247.658 185.287 249.168 185.083 250.477 184.777 252.49 182.739 253.396 180.701 253.597 177.745 254 174.994 253.698 172.548 251.987 170 250.074 170.306 247.456 173.261 246.047 173.771 245.846 174.28 245.644 174.79 245.342 174.688 245.141 174.586 245.04 174.484 244.94 173.567 243.933 172.038 242.926 173.057 241.617 173.873 240.409 175.503 239.302 176.828 239.201 179.07 239 181.414 239.403 183.554 240.107 184.675 240.409 185.898 242.02 185.898 243.127 186 243.933 184.471 244.94 183.554 245.846 183.35 246.148 182.943 246.148 183.146 246.148ZM179.376 252.691C180.191 251.987 181.516 251.383 182.025 250.275 182.739 248.765 181.21 248.06 180.191 247.456 179.58 247.054 178.764 246.852 178.153 246.651 176.624 245.946 174.484 246.852 173.975 248.262 173.465 249.671 174.28 251.181 175.911 251.785 176.828 252.087 177.745 252.289 179.376 252.691ZM178.255 240.107C177.643 240.51 176.42 241.013 176.013 241.819 175.401 243.228 176.726 243.933 177.745 244.537 178.255 244.738 178.764 244.94 179.274 245.141 180.803 245.846 182.637 245.04 183.045 243.429 183.554 241.718 182.331 241.013 180.904 240.611 180.191 240.409 179.478 240.409 178.255 240.107Z" fill="#00458E" fill-rule="evenodd" fill-opacity="1"/><path d="M176.209 85.9999C176.209 84.5693 176.209 83.1386 176.209 81.4014 173.881 82.5255 172.134 82.0145 170.776 80.0729 170 78.9488 170.291 77.9269 171.358 77.2115 173.105 75.9853 174.948 74.759 176.597 73.4305 178.052 72.3064 179.507 71.9998 180.866 73.0217 182.127 74.0436 183 75.4743 182.515 77.4159 181.545 81.0948 178.828 84.8758 176.209 85.9999Z" fill="#00458E" fill-rule="evenodd" fill-opacity="1"/><path d="M129.604 239C130.333 239.9 130.958 240.5 131.479 241.2 131.688 241.4 131.896 241.6 132 241.8 130.542 242.9 128.979 244.1 127.625 245.3 124.396 248.2 121.375 251.2 118.146 254 115.646 256 112.417 255.8 110.125 253.9 107.625 251.8 107 249 108.458 246.3 109.812 246.8 111.062 247.1 110.75 249.2 110.437 251.7 113.875 253.3 116.062 251.8 117.833 250.5 119.396 248.9 121.062 247.3 123.875 244.7 126.583 241.9 129.604 239Z" fill="#00458E" fill-rule="evenodd" fill-opacity="1"/><path d="M195.119 253.702C195.119 253.106 195.119 252.609 195.119 252.113 200.629 253.007 204.02 251.417 204.126 248.238 202.007 248.338 199.887 248.636 197.768 248.437 194.801 248.139 193.318 246.649 193.106 244.563 193 242.377 194.483 240.391 197.344 239.894 199.993 239.298 202.96 239 205.291 240.887 209 243.868 208.046 250.225 203.702 252.609 201.053 254 198.298 254 195.119 253.702ZM200.735 247.146C201.689 246.351 204.338 247.742 204.55 245.159 204.868 242.675 202.854 240.887 200.205 240.887 197.768 240.887 196.179 242.179 196.073 244.066 196.073 245.954 197.662 247.146 200.735 247.146Z" fill="#00458E" fill-rule="evenodd" fill-opacity="1"/><path d="M290 225.625C289.479 226.451 289.167 227.174 288.75 228 282.292 224.283 276.042 220.668 269.688 216.951 268.854 218.293 268.125 219.533 267.396 220.978 266.563 220.462 265.833 220.049 265 219.533 266.979 216.022 268.854 212.511 270.729 209 271.667 209.516 272.396 209.929 272.917 210.239 272.917 210.549 272.917 210.652 272.917 210.755 271.146 214.576 271.042 214.576 274.792 216.745 277.292 218.293 279.896 219.739 282.396 221.185 284.896 222.63 287.396 224.076 290 225.625Z" fill="#00458E" fill-rule="evenodd" fill-opacity="1"/><path d="M133.542 243C134.464 243.788 135.181 244.378 136 245.067 131.187 250.876 126.374 256.487 121.663 262 119 260.326 119 260.326 120.946 257.964 125.042 253.041 129.241 248.119 133.542 243Z" fill="#00458E" fill-rule="evenodd" fill-opacity="1"/><path d="M213 258.833C214.112 258.521 214.82 258.312 215.933 258 217.955 265.285 219.978 272.57 222 280.063 221.09 280.375 220.18 280.584 219.068 281 217.045 273.611 215.023 266.326 213 258.833Z" fill="#00458E" fill-rule="evenodd" fill-opacity="1"/><path d="M283 235.887C282.4 236.732 281.8 237.366 281.2 238 274.9 233.775 268.5 229.655 262 225.324 262.5 224.479 263 223.845 263.5 223 270 227.225 276.4 231.451 283 235.887Z" fill="#00458E" fill-rule="evenodd" fill-opacity="1"/><path d="M213 236.564C216.292 234.915 219.584 233.267 222.876 231.618 224.151 231 225 231.103 225 232.751 224.894 237.079 224.894 241.303 224.682 245.527 224.575 246.351 223.726 247.176 223.301 248 222.982 247.897 222.77 247.794 222.558 247.691 222.558 243.26 222.558 238.933 222.558 234.091 219.797 235.43 217.354 236.461 214.912 237.697 213.85 238.315 213.106 238.212 213 236.564Z" fill="#00458E" fill-rule="evenodd" fill-opacity="1"/><path d="M183 85.717C182.615 88.8483 181.173 91.1716 179.058 92.8887 177.711 93.9998 173.577 92.5857 173.192 90.8685 173 90.2625 173.577 88.9493 174.058 88.8483 176.75 88.0403 178.577 86.1211 180.692 84.6059 181.173 84.3029 182.038 83.9999 182.423 84.2019 182.808 84.4039 182.904 85.313 183 85.717Z" fill="#00458E" fill-rule="evenodd" fill-opacity="1"/><path d="M242.895 115.625C243 116.844 242.474 117.969 240.79 118.437 238.79 119 236.895 118.812 235.211 117.687 235 117.5 235 117.125 235 116.844 235.211 115.344 235.421 113.937 235.632 112.437 235.842 110.844 237 110 238.79 110.469 241.632 111.219 242.79 112.625 242.895 115.625Z" fill="#00458E" fill-rule="evenodd" fill-opacity="1"/><path d="M156.789 245.284C157.842 246.006 158.789 246.626 159.632 247.245 159.105 249 158.158 247.864 157.421 247.451 151 243.735 151 243.735 151.631 242.393 152.579 242.806 153.632 243.323 154.684 243.942 156.263 241.155 157.842 238.471 159.526 235.684 158.474 235.065 157.526 234.342 156.053 233.413 157 233.207 157.421 233 157.947 233.103 159.105 233.103 160.263 233.207 161.421 233.31 161.947 233.413 162.579 233.516 162.789 233.826 163 234.136 162.895 234.858 162.684 235.271 160.789 238.574 158.895 241.774 156.789 245.284Z" fill="#00458E" fill-rule="evenodd" fill-opacity="1"/><path d="M156.928 82.0002C156.06 79.798 155.084 77.9788 154.542 76.1595 154 74.0531 155.193 72.9999 157.47 73.5744 159.639 74.1488 162.458 74.7233 162.675 76.9255 163 79.032 160.614 80.181 158.663 81.2342 158.229 81.5214 157.578 81.7129 156.928 82.0002Z" fill="#00458E" fill-rule="evenodd" fill-opacity="1"/><path d="M153 87.1249C153.405 86.4999 153.709 85.6665 154.215 85.2499 155.633 83.9999 157.962 84.6249 159.785 86.604 161 87.9582 160.797 89.4165 159.886 90.8748 159.582 91.3957 159.278 91.8123 158.873 92.229 157.051 93.9998 155.633 93.7915 154.62 91.3957 154.013 90.0415 153.506 88.6874 153 87.1249Z" fill="#00458E" fill-rule="evenodd" fill-opacity="1"/><path d="M94.0587 144C92.5528 143.417 91.5176 143.028 90.4823 142.736 88.6941 142.153 87.3764 141.181 87.0941 139.236 87 138.847 87.4706 138.07 87.847 137.972 89.1646 137.583 90.4823 137.583 91.7999 137.292 93.6822 137 94.9999 137.972 94.9058 139.917 94.7175 141.375 94.3411 142.736 94.0587 144Z" fill="#00458E" fill-rule="evenodd" fill-opacity="1"/><path d="M101.787 151C100.169 150.263 98.5505 149.632 96.9325 148.895 96.528 148.684 96.0224 148.579 95.719 148.263 95.1122 147.526 94.6066 146.579 93.9998 145.737 94.8088 145.316 95.5167 144.684 96.3258 144.474 98.146 144.053 100.169 143 101.584 144.895 103 146.895 102.494 149.105 101.787 151Z" fill="#00458E" fill-rule="evenodd" fill-opacity="1"/><path d="M269 133.739C268.6 134.754 268.4 135.565 267.9 136.174 266.9 137.594 265.2 138 264.1 137.188 263 136.275 263.1 134.754 264.3 133.232 264.7 132.826 265 132.319 265.5 132.116 266.2 131.71 267.3 131 267.6 131.304 268.3 131.812 268.6 132.927 269 133.739Z" fill="#00458E" fill-rule="evenodd" fill-opacity="1"/></g></g></svg>